<?xml version="1.0" encoding="UTF-8" standalone="no"?>
<svg
   fill-opacity="1"
   color-rendering="auto"
   color-interpolation="auto"
   text-rendering="auto"
   stroke="#000000"
   stroke-linecap="square"
   width="372.66"
   stroke-miterlimit="10"
   shape-rendering="auto"
   stroke-opacity="1"
   fill="#000000"
   stroke-dasharray="none"
   font-weight="normal"
   stroke-width="1"
   viewBox="490 320 372.66 252.95801"
   height="252.95801"
   font-family="Dialog"
   font-style="normal"
   stroke-linejoin="miter"
   font-size="12px"
   stroke-dashoffset="0"
   image-rendering="auto"
   version="1.1"
   id="svg535"
   sodipodi:docname="compacted.svg"
   inkscape:version="1.2.1 (9c6d41e410, 2022-07-14)"
   xmlns:inkscape="http://www.inkscape.org/namespaces/inkscape"
   xmlns:sodipodi="http://sodipodi.sourceforge.net/DTD/sodipodi-0.dtd"
   xmlns="http://www.w3.org/2000/svg"
   xmlns:svg="http://www.w3.org/2000/svg">
  <sodipodi:namedview
     id="namedview537"
     pagecolor="#ffffff"
     bordercolor="#666666"
     borderopacity="1.0"
     inkscape:showpageshadow="2"
     inkscape:pageopacity="0.0"
     inkscape:pagecheckerboard="0"
     inkscape:deskcolor="#d1d1d1"
     showgrid="false"
     inkscape:zoom="1"
     inkscape:cx="298"
     inkscape:cy="128"
     inkscape:window-width="1920"
     inkscape:window-height="1129"
     inkscape:window-x="-4"
     inkscape:window-y="-4"
     inkscape:window-maximized="1"
     inkscape:current-layer="svg535" />
  <!--Generated by the Batik Graphics2D SVG Generator-->
  <defs
     id="genericDefs">
    <defs
       id="defs1">
      <clipPath
         clipPathUnits="userSpaceOnUse"
         id="clipPath1">
        <path
           d="M 0,0 H 2147483600 V 2147483600 H 0 Z"
           id="path3" />
      </clipPath>
      <clipPath
         clipPathUnits="userSpaceOnUse"
         id="clipPath2">
        <path
           d="M 0,0 V 40 H 80 V 0 Z"
           id="path6" />
      </clipPath>
      <clipPath
         clipPathUnits="userSpaceOnUse"
         id="clipPath3">
        <path
           d="M 0,0 V 40 H 60 V 0 Z"
           id="path9" />
      </clipPath>
      <clipPath
         clipPathUnits="userSpaceOnUse"
         id="clipPath4">
        <path
           d="M 0,0 V 80 H 100 V 0 Z"
           id="path12" />
      </clipPath>
      <clipPath
         clipPathUnits="userSpaceOnUse"
         id="clipPath5">
        <path
           d="M 0,0 V 50 H 80 V 0 Z"
           id="path15" />
      </clipPath>
      <clipPath
         clipPathUnits="userSpaceOnUse"
         id="clipPath6">
        <path
           d="M 0,0 V 40 H 100 V 0 Z"
           id="path18" />
      </clipPath>
      <clipPath
         clipPathUnits="userSpaceOnUse"
         id="clipPath7">
        <path
           d="M 0,0 V 50 H 120 V 0 Z"
           id="path21" />
      </clipPath>
      <clipPath
         clipPathUnits="userSpaceOnUse"
         id="clipPath8">
        <path
           d="M 0,0 V 90 H 80 V 0 Z"
           id="path24" />
      </clipPath>
      <clipPath
         clipPathUnits="userSpaceOnUse"
         id="clipPath9">
        <path
           d="M 0,0 V 70 H 80 V 0 Z"
           id="path27" />
      </clipPath>
      <clipPath
         clipPathUnits="userSpaceOnUse"
         id="clipPath10">
        <path
           d="M 0,0 V 50 H 100 V 0 Z"
           id="path30" />
      </clipPath>
      <clipPath
         clipPathUnits="userSpaceOnUse"
         id="clipPath11">
        <path
           d="M 0,0 V 170 H 240 V 0 Z"
           id="path33" />
      </clipPath>
      <clipPath
         clipPathUnits="userSpaceOnUse"
         id="clipPath12">
        <path
           d="M 0,0 V 80 H 80 V 0 Z"
           id="path36" />
      </clipPath>
      <clipPath
         clipPathUnits="userSpaceOnUse"
         id="clipPath13">
        <path
           d="M 0,0 V 100 H 110 V 0 Z"
           id="path39" />
      </clipPath>
      <clipPath
         clipPathUnits="userSpaceOnUse"
         id="clipPath14">
        <path
           d="M 0,0 V 120 H 130 V 0 Z"
           id="path42" />
      </clipPath>
      <clipPath
         clipPathUnits="userSpaceOnUse"
         id="clipPath15">
        <path
           d="M 0,0 V 80 H 110 V 0 Z"
           id="path45" />
      </clipPath>
      <clipPath
         clipPathUnits="userSpaceOnUse"
         id="clipPath16">
        <path
           d="M 0,0 V 80 H 70 V 0 Z"
           id="path48" />
      </clipPath>
      <clipPath
         clipPathUnits="userSpaceOnUse"
         id="clipPath17">
        <path
           d="M 0,0 V 70 H 120 V 0 Z"
           id="path51" />
      </clipPath>
      <clipPath
         clipPathUnits="userSpaceOnUse"
         id="clipPath18">
        <path
           d="M 0,0 V 270 H 290 V 0 Z"
           id="path54" />
      </clipPath>
      <clipPath
         clipPathUnits="userSpaceOnUse"
         id="clipPath19">
        <path
           d="M 0,0 V 150 H 140 V 0 Z"
           id="path57" />
      </clipPath>
      <clipPath
         clipPathUnits="userSpaceOnUse"
         id="clipPath20">
        <path
           d="M 0,0 V 170 H 250 V 0 Z"
           id="path60" />
      </clipPath>
      <clipPath
         clipPathUnits="userSpaceOnUse"
         id="clipPath21">
        <path
           d="M 0,0 V 100 H 130 V 0 Z"
           id="path63" />
      </clipPath>
      <clipPath
         clipPathUnits="userSpaceOnUse"
         id="clipPath22">
        <path
           d="M 0,0 V 80 H 30 V 0 Z"
           id="path66" />
      </clipPath>
      <clipPath
         clipPathUnits="userSpaceOnUse"
         id="clipPath23">
        <path
           d="M 0,0 V 80 H 60 V 0 Z"
           id="path69" />
      </clipPath>
    </defs>
  </defs>
  <rect
     x="0.5"
     width="78.5"
     height="38.5"
     y="0.5"
     clip-path="url(#clipPath2)"
     stroke="none"
     id="rect73"
     transform="translate(761.66,451.958)"
     style="fill:#ffffff;fill-opacity:0;stroke-opacity:0" />
  <rect
     fill="none"
     x="0.5"
     width="78.5"
     height="38.5"
     y="0.5"
     clip-path="url(#clipPath2)"
     id="rect77"
     transform="translate(761.66,451.958)" />
  <text
     x="13"
     font-size="14px"
     y="17.9688"
     clip-path="url(#clipPath2)"
     font-family="sans-serif"
     stroke="none"
     xml:space="preserve"
     id="text79"
     transform="translate(761.66,451.958)">Primitive</text>
  <rect
     x="0.5"
     width="58.5"
     height="38.5"
     y="0.5"
     clip-path="url(#clipPath3)"
     stroke="none"
     id="rect85"
     transform="translate(721.66,361.958)"
     style="fill:#ffffff;fill-opacity:0;stroke-opacity:0" />
  <rect
     fill="none"
     x="0.5"
     width="58.5"
     height="38.5"
     y="0.5"
     clip-path="url(#clipPath3)"
     id="rect89"
     transform="translate(721.66,361.958)" />
  <text
     x="14"
     font-size="14px"
     y="17.9688"
     clip-path="url(#clipPath3)"
     font-family="sans-serif"
     stroke="none"
     xml:space="preserve"
     id="text91"
     transform="translate(721.66,361.958)">Type</text>
  <rect
     x="0.5"
     width="98.5"
     height="78.5"
     y="0.5"
     clip-path="url(#clipPath4)"
     stroke="none"
     id="rect97"
     transform="translate(591.66,451.958)"
     style="fill:#ffffff;fill-opacity:0;stroke-opacity:0" />
  <rect
     fill="none"
     x="0.5"
     width="98.5"
     height="78.5"
     y="0.5"
     clip-path="url(#clipPath4)"
     id="rect101"
     transform="translate(591.66,451.958)" />
  <text
     x="21"
     font-size="14px"
     y="17.9688"
     clip-path="url(#clipPath4)"
     font-family="sans-serif"
     stroke="none"
     xml:space="preserve"
     id="text103"
     transform="translate(591.66,451.958)">Structure</text>
  <rect
     x="0.5"
     width="78.5"
     height="38.5"
     y="0.5"
     clip-path="url(#clipPath2)"
     stroke="none"
     id="rect109"
     transform="translate(531.66,361.958)"
     style="fill:#ffffff;fill-opacity:0;stroke-opacity:0" />
  <rect
     fill="none"
     x="0.5"
     width="78.5"
     height="38.5"
     y="0.5"
     clip-path="url(#clipPath2)"
     id="rect113"
     transform="translate(531.66,361.958)" />
  <text
     x="9"
     font-size="14px"
     y="17.9688"
     clip-path="url(#clipPath2)"
     font-family="sans-serif"
     stroke="none"
     xml:space="preserve"
     id="text115"
     transform="translate(531.66,361.958)">Container</text>
  <path
     fill="none"
     d="m 20.5,11.5 v 39"
     clip-path="url(#clipPath9)"
     id="path221"
     transform="translate(631.66,521.958)" />
  <path
     fill="none"
     d="m 20.5,50.5 h 30"
     clip-path="url(#clipPath9)"
     id="path223"
     transform="translate(631.66,521.958)" />
  <path
     fill="none"
     d="m 50.5,50.5 v -40"
     clip-path="url(#clipPath9)"
     id="path225"
     transform="translate(631.66,521.958)" />
  <path
     fill="#ffffff"
     d="M 14,22.2583 20.5,11 27,22.2583 20.5,33.0167 Z"
     clip-path="url(#clipPath9)"
     stroke="none"
     id="path227"
     transform="translate(631.66,521.958)" />
  <path
     fill="none"
     d="M 14,22.2583 20.5,11 27,22.2583 20.5,33.0167 Z"
     clip-path="url(#clipPath9)"
     id="path229"
     transform="translate(631.66,521.958)" />
  <text
     x="0.7622"
     font-size="14px"
     y="46"
     clip-path="url(#clipPath9)"
     font-family="sans-serif"
     stroke="none"
     xml:space="preserve"
     id="text231"
     transform="translate(682.6838,523.5356)">specializes</text>
  <path
     fill="none"
     d="m 20.5,11.5 v 39"
     clip-path="url(#clipPath9)"
     id="path235"
     transform="translate(581.66,521.958)" />
  <path
     fill="none"
     d="m 20.5,50.5 h 30"
     clip-path="url(#clipPath9)"
     id="path237"
     transform="translate(581.66,521.958)" />
  <path
     fill="none"
     d="m 50.5,50.5 v -40"
     clip-path="url(#clipPath9)"
     id="path239"
     transform="translate(581.66,521.958)" />
  <path
     fill="#ffffff"
     d="M 14,22.2583 20.5,11 27,22.2583 20.5,33.0167 Z"
     clip-path="url(#clipPath9)"
     stroke="none"
     id="path241"
     transform="translate(581.66,521.958)" />
  <path
     fill="none"
     d="M 14,22.2583 20.5,11 27,22.2583 20.5,33.0167 Z"
     clip-path="url(#clipPath9)"
     id="path243"
     transform="translate(581.66,521.958)" />
  <text
     x="5.8207998"
     font-size="14px"
     y="46"
     clip-path="url(#clipPath9)"
     font-family="sans-serif"
     stroke="none"
     xml:space="preserve"
     id="text245"
     transform="translate(538.23021,523.602)">accesses</text>
  <path
     fill="none"
     d="m 79.5,10.5 h -69"
     clip-path="url(#clipPath10)"
     id="path249"
     transform="translate(511.66,491.958)" />
  <path
     fill="none"
     d="m 10.5,10.5 v 20"
     clip-path="url(#clipPath10)"
     id="path251"
     transform="translate(511.66,491.958)" />
  <path
     fill="none"
     d="m 10.5,30.5 h 70"
     clip-path="url(#clipPath10)"
     id="path253"
     transform="translate(511.66,491.958)" />
  <path
     fill="#ffffff"
     d="M 68.7417,4 80,10.5 68.7417,17 57.9833,10.5 Z"
     clip-path="url(#clipPath10)"
     stroke="none"
     id="path255"
     transform="translate(511.66,491.958)" />
  <path
     fill="none"
     d="M 68.7417,4 80,10.5 68.7417,17 57.9833,10.5 Z"
     clip-path="url(#clipPath10)"
     id="path257"
     transform="translate(511.66,491.958)" />
  <text
     x="14"
     font-size="14px"
     y="27.9844"
     clip-path="url(#clipPath10)"
     font-family="sans-serif"
     stroke="none"
     xml:space="preserve"
     id="text259"
     transform="translate(508.54202,472.03292)">calls</text>
  <path
     fill="none"
     d="m 79.5,10.5 h -69"
     clip-path="url(#clipPath10)"
     id="path263"
     transform="translate(511.66,451.958)" />
  <path
     fill="none"
     d="m 10.5,10.5 v 20"
     clip-path="url(#clipPath10)"
     id="path265"
     transform="translate(511.66,451.958)" />
  <path
     fill="none"
     d="m 10.5,30.5 h 70"
     clip-path="url(#clipPath10)"
     id="path267"
     transform="translate(511.66,451.958)" />
  <path
     fill="#ffffff"
     d="M 68.7417,4 80,10.5 68.7417,17 57.9833,10.5 Z"
     clip-path="url(#clipPath10)"
     stroke="none"
     id="path269"
     transform="translate(511.66,451.958)" />
  <path
     fill="none"
     d="M 68.7417,4 80,10.5 68.7417,17 57.9833,10.5 Z"
     clip-path="url(#clipPath10)"
     id="path271"
     transform="translate(511.66,451.958)" />
  <text
     x="14"
     font-size="14px"
     y="27.9844"
     clip-path="url(#clipPath10)"
     font-family="sans-serif"
     stroke="none"
     xml:space="preserve"
     id="text273"
     transform="translate(490.77401,431.6996)">constructs</text>
  <path
     fill="none"
     d="m 11.5,150.5 h 169"
     clip-path="url(#clipPath11)"
     id="path277"
     transform="translate(681.66,361.958)" />
  <path
     fill="none"
     d="M 180.5,150.5 V 10.5"
     clip-path="url(#clipPath11)"
     id="path279"
     transform="translate(681.66,361.958)" />
  <path
     fill="none"
     d="m 180.5,10.5 h -80"
     clip-path="url(#clipPath11)"
     id="path281"
     transform="translate(681.66,361.958)" />
  <path
     fill="#ffffff"
     d="M 22.2583,157 11,150.5 22.2583,144 l 10.7584,6.5 z"
     clip-path="url(#clipPath11)"
     stroke="none"
     id="path283"
     transform="translate(681.66,361.958)" />
  <path
     fill="none"
     d="M 22.2583,157 11,150.5 22.2583,144 l 10.7584,6.5 z"
     clip-path="url(#clipPath11)"
     id="path285"
     transform="translate(681.66,361.958)" />
  <text
     x="184"
     font-size="14px"
     y="132.98441"
     clip-path="url(#clipPath11)"
     font-family="sans-serif"
     stroke="none"
     xml:space="preserve"
     id="text287"
     transform="translate(536.39198,377.63719)">returns</text>
  <path
     fill="none"
     d="m 10.5,11.5 v 29"
     clip-path="url(#clipPath12)"
     id="path291"
     transform="translate(741.66,391.958)" />
  <path
     fill="none"
     d="m 10.5,40.5 h 50"
     clip-path="url(#clipPath12)"
     id="path293"
     transform="translate(741.66,391.958)" />
  <path
     fill="none"
     d="m 60.5,40.5 v 20"
     clip-path="url(#clipPath12)"
     id="path295"
     transform="translate(741.66,391.958)" />
  <path
     fill="#ffffff"
     d="M 4,22.2583 10.5,11 17,22.2583 Z"
     clip-path="url(#clipPath12)"
     stroke="none"
     id="path297"
     transform="translate(741.66,391.958)" />
  <path
     fill="none"
     d="M 4,22.2583 10.5,11 17,22.2583 Z"
     clip-path="url(#clipPath12)"
     id="path299"
     transform="translate(741.66,391.958)" />
  <path
     fill="none"
     d="m 20.5,79.5 v -59"
     clip-path="url(#clipPath13)"
     id="path303"
     transform="translate(631.66,371.958)" />
  <path
     fill="none"
     d="m 20.5,20.5 h 70"
     clip-path="url(#clipPath13)"
     id="path305"
     transform="translate(631.66,371.958)" />
  <path
     fill="#ffffff"
     d="M 27,68.7417 20.5,80 14,68.7417 20.5,57.9833 Z"
     clip-path="url(#clipPath13)"
     stroke="none"
     id="path307"
     transform="translate(631.66,371.958)" />
  <path
     fill="none"
     d="M 27,68.7417 20.5,80 14,68.7417 20.5,57.9833 Z"
     clip-path="url(#clipPath13)"
     id="path309"
     transform="translate(631.66,371.958)" />
  <text
     x="0.87599999"
     font-size="14px"
     y="16"
     clip-path="url(#clipPath13)"
     font-family="sans-serif"
     stroke="none"
     xml:space="preserve"
     id="text311"
     transform="translate(653.14,387.22715)">accepts</text>
  <path
     fill="none"
     d="m 20.5,99.5 v -79"
     clip-path="url(#clipPath14)"
     id="path315"
     transform="translate(611.66,351.958)" />
  <path
     fill="none"
     d="m 20.5,20.5 h 90"
     clip-path="url(#clipPath14)"
     id="path317"
     transform="translate(611.66,351.958)" />
  <path
     fill="#ffffff"
     d="M 27,88.7417 20.5,100 14,88.7417 20.5,77.9833 Z"
     clip-path="url(#clipPath14)"
     stroke="none"
     id="path319"
     transform="translate(611.66,351.958)" />
  <path
     fill="none"
     d="M 27,88.7417 20.5,100 14,88.7417 20.5,77.9833 Z"
     clip-path="url(#clipPath14)"
     id="path321"
     transform="translate(611.66,351.958)" />
  <text
     x="8.2656002"
     font-size="14px"
     y="16"
     clip-path="url(#clipPath14)"
     font-family="sans-serif"
     stroke="none"
     xml:space="preserve"
     id="text323"
     transform="translate(625.08941,354.3492)">holds</text>
  <path
     fill="none"
     d="m 90.5,11.5 v 29"
     clip-path="url(#clipPath15)"
     id="path327"
     transform="translate(661.66,391.958)" />
  <path
     fill="none"
     d="m 90.5,40.5 h -80"
     clip-path="url(#clipPath15)"
     id="path329"
     transform="translate(661.66,391.958)" />
  <path
     fill="none"
     d="m 10.5,40.5 v 20"
     clip-path="url(#clipPath15)"
     id="path331"
     transform="translate(661.66,391.958)" />
  <path
     fill="#ffffff"
     d="M 84,22.2583 90.5,11 97,22.2583 Z"
     clip-path="url(#clipPath15)"
     stroke="none"
     id="path333"
     transform="translate(661.66,391.958)" />
  <path
     fill="none"
     d="M 84,22.2583 90.5,11 97,22.2583 Z"
     clip-path="url(#clipPath15)"
     id="path335"
     transform="translate(661.66,391.958)" />
  <path
     fill="none"
     d="m 10.5,11.5 v 29"
     clip-path="url(#clipPath16)"
     id="path339"
     transform="translate(561.66,391.958)" />
  <path
     fill="none"
     d="m 10.5,40.5 h 40"
     clip-path="url(#clipPath16)"
     id="path341"
     transform="translate(561.66,391.958)" />
  <path
     fill="none"
     d="m 50.5,40.5 v 20"
     clip-path="url(#clipPath16)"
     id="path343"
     transform="translate(561.66,391.958)" />
  <path
     fill="#ffffff"
     d="M 4,22.2583 10.5,11 17,22.2583 Z"
     clip-path="url(#clipPath16)"
     stroke="none"
     id="path345"
     transform="translate(561.66,391.958)" />
  <path
     fill="none"
     d="M 4,22.2583 10.5,11 17,22.2583 Z"
     clip-path="url(#clipPath16)"
     id="path347"
     transform="translate(561.66,391.958)" />
  <path
     fill="none"
     d="m 60.5,39.5 v -29"
     clip-path="url(#clipPath8)"
     id="path351"
     transform="translate(481.66,321.958)" />
  <path
     fill="none"
     d="m 60.5,10.5 h -50"
     clip-path="url(#clipPath8)"
     id="path353"
     transform="translate(481.66,321.958)" />
  <path
     fill="none"
     d="m 10.5,10.5 v 60"
     clip-path="url(#clipPath8)"
     id="path355"
     transform="translate(481.66,321.958)" />
  <path
     fill="none"
     d="m 10.5,70.5 h 40"
     clip-path="url(#clipPath8)"
     id="path357"
     transform="translate(481.66,321.958)" />
  <path
     fill="#ffffff"
     d="M 67,28.7417 60.5,40 54,28.7417 60.5,17.9833 Z"
     clip-path="url(#clipPath8)"
     stroke="none"
     id="path359"
     transform="translate(481.66,321.958)" />
  <path
     fill="none"
     d="M 67,28.7417 60.5,40 54,28.7417 60.5,17.9833 Z"
     clip-path="url(#clipPath8)"
     id="path361"
     transform="translate(481.66,321.958)" />
  <text
     x="14"
     font-size="14px"
     y="27.9844"
     clip-path="url(#clipPath8)"
     font-family="sans-serif"
     stroke="none"
     xml:space="preserve"
     id="text363"
     transform="translate(475.23,302.3336)">contains</text>
</svg>
