<?xml version="1.0" encoding="UTF-8" standalone="no"?>
<svg
   fill-opacity="1"
   color-rendering="auto"
   color-interpolation="auto"
   text-rendering="auto"
   stroke="#000000"
   stroke-linecap="square"
   width="485"
   stroke-miterlimit="10"
   shape-rendering="auto"
   stroke-opacity="1"
   fill="#000000"
   stroke-dasharray="none"
   font-weight="normal"
   stroke-width="1"
   viewBox="490 320 485 277.69324"
   height="277.69324"
   font-family="Dialog"
   font-style="normal"
   stroke-linejoin="miter"
   font-size="12px"
   stroke-dashoffset="0"
   image-rendering="auto"
   version="1.1"
   id="svg535"
   sodipodi:docname="expanded.svg"
   inkscape:version="1.2.1 (9c6d41e410, 2022-07-14)"
   xmlns:inkscape="http://www.inkscape.org/namespaces/inkscape"
   xmlns:sodipodi="http://sodipodi.sourceforge.net/DTD/sodipodi-0.dtd"
   xmlns="http://www.w3.org/2000/svg"
   xmlns:svg="http://www.w3.org/2000/svg">
  <sodipodi:namedview
     id="namedview537"
     pagecolor="#ffffff"
     bordercolor="#666666"
     borderopacity="1.0"
     inkscape:showpageshadow="2"
     inkscape:pageopacity="0.0"
     inkscape:pagecheckerboard="0"
     inkscape:deskcolor="#d1d1d1"
     showgrid="false"
     inkscape:zoom="1.4142136"
     inkscape:cx="28.991378"
     inkscape:cy="94.045203"
     inkscape:window-width="1920"
     inkscape:window-height="1009"
     inkscape:window-x="-4"
     inkscape:window-y="-4"
     inkscape:window-maximized="1"
     inkscape:current-layer="svg535" />
  <!--Generated by the Batik Graphics2D SVG Generator-->
  <defs
     id="genericDefs">
    <defs
       id="defs1">
      <clipPath
         clipPathUnits="userSpaceOnUse"
         id="clipPath1">
        <path
           d="M 0,0 H 2147483600 V 2147483600 H 0 Z"
           id="path3" />
      </clipPath>
      <clipPath
         clipPathUnits="userSpaceOnUse"
         id="clipPath2">
        <path
           d="M 0,0 V 40 H 80 V 0 Z"
           id="path6" />
      </clipPath>
      <clipPath
         clipPathUnits="userSpaceOnUse"
         id="clipPath3">
        <path
           d="M 0,0 V 40 H 60 V 0 Z"
           id="path9" />
      </clipPath>
      <clipPath
         clipPathUnits="userSpaceOnUse"
         id="clipPath4">
        <path
           d="M 0,0 V 80 H 100 V 0 Z"
           id="path12" />
      </clipPath>
      <clipPath
         clipPathUnits="userSpaceOnUse"
         id="clipPath5">
        <path
           d="M 0,0 V 50 H 80 V 0 Z"
           id="path15" />
      </clipPath>
      <clipPath
         clipPathUnits="userSpaceOnUse"
         id="clipPath6">
        <path
           d="M 0,0 V 40 H 100 V 0 Z"
           id="path18" />
      </clipPath>
      <clipPath
         clipPathUnits="userSpaceOnUse"
         id="clipPath7">
        <path
           d="M 0,0 V 50 H 120 V 0 Z"
           id="path21" />
      </clipPath>
      <clipPath
         clipPathUnits="userSpaceOnUse"
         id="clipPath8">
        <path
           d="M 0,0 V 90 H 80 V 0 Z"
           id="path24" />
      </clipPath>
      <clipPath
         clipPathUnits="userSpaceOnUse"
         id="clipPath9">
        <path
           d="M 0,0 V 70 H 80 V 0 Z"
           id="path27" />
      </clipPath>
      <clipPath
         clipPathUnits="userSpaceOnUse"
         id="clipPath10">
        <path
           d="M 0,0 V 50 H 100 V 0 Z"
           id="path30" />
      </clipPath>
      <clipPath
         clipPathUnits="userSpaceOnUse"
         id="clipPath11">
        <path
           d="M 0,0 V 170 H 240 V 0 Z"
           id="path33" />
      </clipPath>
      <clipPath
         clipPathUnits="userSpaceOnUse"
         id="clipPath12">
        <path
           d="M 0,0 V 80 H 80 V 0 Z"
           id="path36" />
      </clipPath>
      <clipPath
         clipPathUnits="userSpaceOnUse"
         id="clipPath13">
        <path
           d="M 0,0 V 100 H 110 V 0 Z"
           id="path39" />
      </clipPath>
      <clipPath
         clipPathUnits="userSpaceOnUse"
         id="clipPath14">
        <path
           d="M 0,0 V 120 H 130 V 0 Z"
           id="path42" />
      </clipPath>
      <clipPath
         clipPathUnits="userSpaceOnUse"
         id="clipPath15">
        <path
           d="M 0,0 V 80 H 110 V 0 Z"
           id="path45" />
      </clipPath>
      <clipPath
         clipPathUnits="userSpaceOnUse"
         id="clipPath16">
        <path
           d="M 0,0 V 80 H 70 V 0 Z"
           id="path48" />
      </clipPath>
      <clipPath
         clipPathUnits="userSpaceOnUse"
         id="clipPath17">
        <path
           d="M 0,0 V 70 H 120 V 0 Z"
           id="path51" />
      </clipPath>
      <clipPath
         clipPathUnits="userSpaceOnUse"
         id="clipPath18">
        <path
           d="M 0,0 V 270 H 290 V 0 Z"
           id="path54" />
      </clipPath>
      <clipPath
         clipPathUnits="userSpaceOnUse"
         id="clipPath19">
        <path
           d="M 0,0 V 150 H 140 V 0 Z"
           id="path57" />
      </clipPath>
      <clipPath
         clipPathUnits="userSpaceOnUse"
         id="clipPath20">
        <path
           d="M 0,0 V 170 H 250 V 0 Z"
           id="path60" />
      </clipPath>
      <clipPath
         clipPathUnits="userSpaceOnUse"
         id="clipPath21">
        <path
           d="M 0,0 V 100 H 130 V 0 Z"
           id="path63" />
      </clipPath>
      <clipPath
         clipPathUnits="userSpaceOnUse"
         id="clipPath22">
        <path
           d="M 0,0 V 80 H 30 V 0 Z"
           id="path66" />
      </clipPath>
      <clipPath
         clipPathUnits="userSpaceOnUse"
         id="clipPath23">
        <path
           d="M 0,0 V 80 H 60 V 0 Z"
           id="path69" />
      </clipPath>
    </defs>
  </defs>
  <rect
     x="0.5"
     width="78.5"
     height="48.5"
     y="0.5"
     clip-path="url(#clipPath5)"
     stroke="none"
     id="rect121"
     transform="translate(704,548.19325)"
     style="fill:#ffffff;fill-opacity:0;stroke-opacity:0" />
  <rect
     fill="none"
     x="0.5"
     width="78.5"
     height="48.5"
     y="0.5"
     clip-path="url(#clipPath5)"
     id="rect125"
     transform="translate(704,548.19325)" />
  <text
     x="14"
     font-size="14px"
     y="17.9688"
     clip-path="url(#clipPath5)"
     font-family="sans-serif"
     stroke="none"
     xml:space="preserve"
     id="text127"
     transform="translate(704,548.19325)">Variable</text>
  <path
     fill="none"
     d="M 1,23.9688 H 79"
     clip-path="url(#clipPath5)"
     id="path129"
     transform="translate(704,548.19325)" />
  <text
     x="5"
     font-size="14px"
     y="38.9375"
     clip-path="url(#clipPath5)"
     font-family="sans-serif"
     stroke="none"
     xml:space="preserve"
     id="text131"
     transform="translate(704,548.19325)">type:Type</text>
  <rect
     x="0.5"
     width="98.5"
     height="38.5"
     y="0.5"
     clip-path="url(#clipPath6)"
     stroke="none"
     id="rect135"
     transform="translate(844,552.19325)"
     style="fill:#ffffff;fill-opacity:0;stroke-opacity:0" />
  <rect
     fill="none"
     x="0.5"
     width="98.5"
     height="38.5"
     y="0.5"
     clip-path="url(#clipPath6)"
     id="rect139"
     transform="translate(844,552.19325)" />
  <text
     x="13"
     font-size="14px"
     y="17.9688"
     clip-path="url(#clipPath6)"
     font-family="sans-serif"
     stroke="none"
     xml:space="preserve"
     id="text141"
     transform="translate(844,552.19325)">Constructor</text>
  <rect
     x="0.5"
     width="118.5"
     height="48.5"
     y="0.5"
     clip-path="url(#clipPath7)"
     stroke="none"
     id="rect147"
     transform="translate(834,452.19325)"
     style="fill:#ffffff;fill-opacity:0;stroke-opacity:0" />
  <rect
     fill="none"
     x="0.5"
     width="118.5"
     height="48.5"
     y="0.5"
     clip-path="url(#clipPath7)"
     id="rect151"
     transform="translate(834,452.19325)" />
  <text
     x="29"
     font-size="14px"
     y="17.9688"
     clip-path="url(#clipPath7)"
     font-family="sans-serif"
     stroke="none"
     xml:space="preserve"
     id="text153"
     transform="translate(834,452.19325)">Operation</text>
  <path
     fill="none"
     d="M 1,23.9688 H 119"
     clip-path="url(#clipPath7)"
     id="path155"
     transform="translate(834,452.19325)" />
  <text
     x="5"
     font-size="14px"
     y="38.9375"
     clip-path="url(#clipPath7)"
     font-family="sans-serif"
     stroke="none"
     xml:space="preserve"
     id="text157"
     transform="translate(834,452.19325)">returnType: Type</text>
  <rect
     x="0.5"
     width="58.5"
     height="38.5"
     y="0.5"
     clip-path="url(#clipPath3)"
     stroke="none"
     id="rect161"
     transform="translate(864,362.19325)"
     style="fill:#ffffff;fill-opacity:0;stroke-opacity:0" />
  <rect
     fill="none"
     x="0.5"
     width="58.5"
     height="38.5"
     y="0.5"
     clip-path="url(#clipPath3)"
     id="rect165"
     transform="translate(864,362.19325)" />
  <text
     x="12"
     font-size="14px"
     y="17.9688"
     clip-path="url(#clipPath3)"
     font-family="sans-serif"
     stroke="none"
     xml:space="preserve"
     id="text167"
     transform="translate(864,362.19325)">Script</text>
  <rect
     x="0.5"
     width="78.5"
     height="88.5"
     y="0.5"
     clip-path="url(#clipPath8)"
     stroke="none"
     id="rect173"
     transform="translate(564,452.19325)"
     style="fill:#ffffff;fill-opacity:0;stroke-opacity:0" />
  <rect
     fill="none"
     x="0.5"
     width="78.5"
     height="88.5"
     y="0.5"
     clip-path="url(#clipPath8)"
     id="rect177"
     transform="translate(564,452.19325)" />
  <text
     x="11"
     font-size="14px"
     y="17.9688"
     clip-path="url(#clipPath8)"
     font-family="sans-serif"
     stroke="none"
     xml:space="preserve"
     id="text179"
     transform="translate(564,452.19325)">Structure</text>
  <rect
     x="0.5"
     width="78.5"
     height="38.5"
     y="0.5"
     clip-path="url(#clipPath2)"
     stroke="none"
     id="rect185"
     transform="translate(664,452.19325)"
     style="fill:#ffffff;fill-opacity:0;stroke-opacity:0" />
  <rect
     fill="none"
     x="0.5"
     width="78.5"
     height="38.5"
     y="0.5"
     clip-path="url(#clipPath2)"
     id="rect189"
     transform="translate(664,452.19325)" />
  <text
     x="13"
     font-size="14px"
     y="17.9688"
     clip-path="url(#clipPath2)"
     font-family="sans-serif"
     stroke="none"
     xml:space="preserve"
     id="text191"
     transform="translate(664,452.19325)">Primitive</text>
  <rect
     x="0.5"
     width="58.5"
     height="38.5"
     y="0.5"
     clip-path="url(#clipPath3)"
     stroke="none"
     id="rect197"
     transform="translate(624,362.19325)"
     style="fill:#ffffff;fill-opacity:0;stroke-opacity:0" />
  <rect
     fill="none"
     x="0.5"
     width="58.5"
     height="38.5"
     y="0.5"
     clip-path="url(#clipPath3)"
     id="rect201"
     transform="translate(624,362.19325)" />
  <text
     x="14"
     font-size="14px"
     y="17.9688"
     clip-path="url(#clipPath3)"
     font-family="sans-serif"
     stroke="none"
     xml:space="preserve"
     id="text203"
     transform="translate(624,362.19325)">Type</text>
  <rect
     x="0.5"
     width="78.5"
     height="38.5"
     y="0.5"
     clip-path="url(#clipPath2)"
     stroke="none"
     id="rect209"
     transform="translate(524,362.19325)"
     style="fill:#ffffff;fill-opacity:0;stroke-opacity:0" />
  <rect
     fill="none"
     x="0.5"
     width="78.5"
     height="38.5"
     y="0.5"
     clip-path="url(#clipPath2)"
     id="rect213"
     transform="translate(524,362.19325)" />
  <text
     x="9"
     font-size="14px"
     y="17.9688"
     clip-path="url(#clipPath2)"
     font-family="sans-serif"
     stroke="none"
     xml:space="preserve"
     id="text215"
     transform="translate(524,362.19325)">Container</text>
  <path
     fill="none"
     d="m 20.5,11.5 v 39"
     clip-path="url(#clipPath17)"
     id="path367"
     transform="translate(604,532.19325)" />
  <path
     fill="none"
     d="m 20.5,50.5 h 80"
     clip-path="url(#clipPath17)"
     id="path369"
     transform="translate(604,532.19325)" />
  <path
     d="M 14,22.2583 20.5,11 27,22.2583 20.5,33.0167 Z"
     clip-path="url(#clipPath17)"
     stroke="none"
     id="path371"
     transform="translate(604,532.19325)" />
  <path
     fill="none"
     d="M 14,22.2583 20.5,11 27,22.2583 20.5,33.0167 Z"
     clip-path="url(#clipPath17)"
     id="path373"
     transform="translate(604,532.19325)" />
  <text
     x="3.0311999"
     font-size="14px"
     y="46"
     clip-path="url(#clipPath17)"
     font-family="sans-serif"
     stroke="none"
     xml:space="preserve"
     id="text375"
     transform="translate(622.95479,534.15035)">hasVariable</text>
  <path
     fill="#ffffff"
     d="M 162.2583,17 151,10.5 162.2583,4 l 10.7584,6.5 z"
     clip-path="url(#clipPath18)"
     stroke="none"
     id="path385"
     transform="translate(774,362.19325)" />
  <path
     fill="none"
     d="m 59.5,10.5 h -29"
     clip-path="url(#clipPath19)"
     id="path393"
     transform="translate(774,452.19325)" />
  <path
     fill="none"
     d="m 30.5,10.5 v 120"
     clip-path="url(#clipPath19)"
     id="path395"
     transform="translate(774,452.19325)" />
  <path
     fill="none"
     d="m 30.5,130.5 h -20"
     clip-path="url(#clipPath19)"
     id="path397"
     transform="translate(774,452.19325)" />
  <path
     d="M 48.7417,4 60,10.5 48.7417,17 37.9833,10.5 Z"
     clip-path="url(#clipPath19)"
     stroke="none"
     id="path399"
     transform="translate(774,452.19325)" />
  <path
     fill="none"
     d="M 48.7417,4 60,10.5 48.7417,17 37.9833,10.5 Z"
     clip-path="url(#clipPath19)"
     id="path401"
     transform="translate(774,452.19325)" />
  <text
     x="34"
     font-size="14px"
     y="72.984398"
     clip-path="url(#clipPath19)"
     font-family="sans-serif"
     stroke="none"
     xml:space="preserve"
     id="text403"
     transform="rotate(90,218.85452,660.75277)">hasParameter</text>
  <path
     fill="none"
     d="m 229.5,10.5 h -79"
     clip-path="url(#clipPath20)"
     id="path407"
     transform="translate(634,382.19325)" />
  <path
     fill="none"
     d="m 150.5,10.5 v 140"
     clip-path="url(#clipPath20)"
     id="path409"
     transform="translate(634,382.19325)" />
  <path
     fill="none"
     d="M 150.5,150.5 H 10.5"
     clip-path="url(#clipPath20)"
     id="path411"
     transform="translate(634,382.19325)" />
  <path
     fill="#ffffff"
     d="M 218.7417,4 230,10.5 218.7417,17 207.9833,10.5 Z"
     clip-path="url(#clipPath20)"
     stroke="none"
     id="path413"
     transform="translate(634,382.19325)" />
  <path
     fill="none"
     d="M 218.7417,4 230,10.5 218.7417,17 207.9833,10.5 Z"
     clip-path="url(#clipPath20)"
     id="path415"
     transform="translate(634,382.19325)" />
  <text
     x="154"
     font-size="14px"
     y="117.9844"
     clip-path="url(#clipPath20)"
     font-family="sans-serif"
     stroke="none"
     xml:space="preserve"
     id="text417"
     transform="translate(631.916,292.72445)">instantiates</text>
  <path
     fill="none"
     d="m 11.5,10.5 h 49"
     clip-path="url(#clipPath21)"
     id="path421"
     transform="translate(914,382.19325)" />
  <path
     fill="none"
     d="m 60.5,10.5 v 70"
     clip-path="url(#clipPath21)"
     id="path423"
     transform="translate(914,382.19325)" />
  <path
     fill="none"
     d="m 60.5,80.5 h -20"
     clip-path="url(#clipPath21)"
     id="path425"
     transform="translate(914,382.19325)" />
  <path
     fill="#ffffff"
     d="M 22.2583,17 11,10.5 22.2583,4 33.0167,10.5 Z"
     clip-path="url(#clipPath21)"
     stroke="none"
     id="path427"
     transform="translate(914,382.19325)" />
  <path
     fill="none"
     d="M 22.2583,17 11,10.5 22.2583,4 33.0167,10.5 Z"
     clip-path="url(#clipPath21)"
     id="path429"
     transform="translate(914,382.19325)" />
  <text
     x="64"
     font-size="14px"
     y="37.984402"
     clip-path="url(#clipPath21)"
     font-family="sans-serif"
     stroke="none"
     xml:space="preserve"
     id="text431"
     transform="translate(859.916,372.88545)">invokes</text>
  <path
     fill="none"
     d="m 11.5,150.5 h 119"
     clip-path="url(#clipPath20)"
     id="path435"
     transform="translate(634,362.19325)" />
  <path
     fill="none"
     d="M 130.5,150.5 V 10.5"
     clip-path="url(#clipPath20)"
     id="path437"
     transform="translate(634,362.19325)" />
  <path
     fill="none"
     d="m 130.5,10.5 h 100"
     clip-path="url(#clipPath20)"
     id="path439"
     transform="translate(634,362.19325)" />
  <path
     d="M 22.2583,157 11,150.5 22.2583,144 l 10.7584,6.5 z"
     clip-path="url(#clipPath20)"
     stroke="none"
     id="path441"
     transform="translate(634,362.19325)" />
  <path
     fill="none"
     d="M 22.2583,157 11,150.5 22.2583,144 l 10.7584,6.5 z"
     clip-path="url(#clipPath20)"
     id="path443"
     transform="translate(634,362.19325)" />
  <text
     x="134"
     font-size="14px"
     y="97.984398"
     clip-path="url(#clipPath20)"
     font-family="sans-serif"
     stroke="none"
     xml:space="preserve"
     id="text445"
     transform="translate(552.32917,410.30595)">hasScript</text>
  <path
     fill="none"
     d="m 10.5,11.5 v 49"
     clip-path="url(#clipPath22)"
     id="path449"
     transform="translate(884,492.19325)" />
  <path
     fill="#ffffff"
     d="M 4,22.2583 10.5,11 17,22.2583 Z"
     clip-path="url(#clipPath22)"
     stroke="none"
     id="path451"
     transform="translate(884,492.19325)" />
  <path
     fill="none"
     d="M 4,22.2583 10.5,11 17,22.2583 Z"
     clip-path="url(#clipPath22)"
     id="path453"
     transform="translate(884,492.19325)" />
  <path
     fill="none"
     d="m 10.5,11.5 v 49"
     clip-path="url(#clipPath22)"
     id="path457"
     transform="translate(884,392.19325)" />
  <path
     fill="#ffffff"
     d="M 4,22.2583 10.5,11 17,22.2583 Z"
     clip-path="url(#clipPath22)"
     stroke="none"
     id="path459"
     transform="translate(884,392.19325)" />
  <path
     fill="none"
     d="M 4,22.2583 10.5,11 17,22.2583 Z"
     clip-path="url(#clipPath22)"
     id="path461"
     transform="translate(884,392.19325)" />
  <path
     fill="none"
     d="m 69.5,10.5 h -39"
     clip-path="url(#clipPath15)"
     id="path465"
     transform="translate(494,522.19325)" />
  <path
     fill="none"
     d="m 30.5,10.5 v 40"
     clip-path="url(#clipPath15)"
     id="path467"
     transform="translate(494,522.19325)" />
  <path
     fill="none"
     d="m 30.5,50.5 h 60"
     clip-path="url(#clipPath15)"
     id="path469"
     transform="translate(494,522.19325)" />
  <path
     fill="none"
     d="m 90.5,50.5 v -30"
     clip-path="url(#clipPath15)"
     id="path471"
     transform="translate(494,522.19325)" />
  <path
     fill="#ffffff"
     d="M 58.7417,4 70,10.5 58.7417,17 47.9833,10.5 Z"
     clip-path="url(#clipPath15)"
     stroke="none"
     id="path473"
     transform="translate(494,522.19325)" />
  <path
     fill="none"
     d="M 58.7417,4 70,10.5 58.7417,17 47.9833,10.5 Z"
     clip-path="url(#clipPath15)"
     id="path475"
     transform="translate(494,522.19325)" />
  <text
     x="0.7622"
     font-size="14px"
     y="61.9688"
     clip-path="url(#clipPath15)"
     font-family="sans-serif"
     stroke="none"
     xml:space="preserve"
     id="text477"
     transform="translate(518.79383,524.86445)">specializes</text>
  <path
     fill="none"
     d="m 10.5,11.5 v 29"
     clip-path="url(#clipPath23)"
     id="path481"
     transform="translate(554,392.19325)" />
  <path
     fill="none"
     d="m 10.5,40.5 h 30"
     clip-path="url(#clipPath23)"
     id="path483"
     transform="translate(554,392.19325)" />
  <path
     fill="none"
     d="m 40.5,40.5 v 20"
     clip-path="url(#clipPath23)"
     id="path485"
     transform="translate(554,392.19325)" />
  <path
     fill="#ffffff"
     d="M 4,22.2583 10.5,11 17,22.2583 Z"
     clip-path="url(#clipPath23)"
     stroke="none"
     id="path487"
     transform="translate(554,392.19325)" />
  <path
     fill="none"
     d="M 4,22.2583 10.5,11 17,22.2583 Z"
     clip-path="url(#clipPath23)"
     id="path489"
     transform="translate(554,392.19325)" />
  <path
     fill="none"
     d="m 10.5,11.5 v 29"
     clip-path="url(#clipPath12)"
     id="path493"
     transform="translate(644,392.19325)" />
  <path
     fill="none"
     d="m 10.5,40.5 h 50"
     clip-path="url(#clipPath12)"
     id="path495"
     transform="translate(644,392.19325)" />
  <path
     fill="none"
     d="m 60.5,40.5 v 20"
     clip-path="url(#clipPath12)"
     id="path497"
     transform="translate(644,392.19325)" />
  <path
     fill="#ffffff"
     d="M 4,22.2583 10.5,11 17,22.2583 Z"
     clip-path="url(#clipPath12)"
     stroke="none"
     id="path499"
     transform="translate(644,392.19325)" />
  <path
     fill="none"
     d="M 4,22.2583 10.5,11 17,22.2583 Z"
     clip-path="url(#clipPath12)"
     id="path501"
     transform="translate(644,392.19325)" />
  <path
     fill="none"
     d="m 50.5,11.5 v 29"
     clip-path="url(#clipPath16)"
     id="path505"
     transform="translate(604,392.19325)" />
  <path
     fill="none"
     d="m 50.5,40.5 h -40"
     clip-path="url(#clipPath16)"
     id="path507"
     transform="translate(604,392.19325)" />
  <path
     fill="none"
     d="m 10.5,40.5 v 20"
     clip-path="url(#clipPath16)"
     id="path509"
     transform="translate(604,392.19325)" />
  <path
     fill="#ffffff"
     d="M 44,22.2583 50.5,11 57,22.2583 Z"
     clip-path="url(#clipPath16)"
     stroke="none"
     id="path511"
     transform="translate(604,392.19325)" />
  <path
     fill="none"
     d="M 44,22.2583 50.5,11 57,22.2583 Z"
     clip-path="url(#clipPath16)"
     id="path513"
     transform="translate(604,392.19325)" />
  <path
     fill="none"
     d="m 60.5,39.5 v -29"
     clip-path="url(#clipPath8)"
     id="path517"
     transform="translate(474,322.19325)" />
  <path
     fill="none"
     d="m 60.5,10.5 h -44"
     clip-path="url(#clipPath8)"
     id="path519"
     transform="translate(474,322.19325)"
     sodipodi:nodetypes="cc" />
  <path
     fill="none"
     d="m 10.5,10.5 v 60"
     clip-path="url(#clipPath8)"
     id="path521"
     transform="translate(480,322.19325)" />
  <path
     fill="none"
     d="m 16.5,70.5 h 34"
     clip-path="url(#clipPath8)"
     id="path523"
     transform="translate(474,322.19325)"
     sodipodi:nodetypes="cc" />
  <path
     fill="#ffffff"
     d="M 67,28.7417 60.5,40 54,28.7417 60.5,17.9833 Z"
     clip-path="url(#clipPath8)"
     stroke="none"
     id="path525"
     transform="translate(474,322.19325)" />
  <path
     fill="none"
     d="M 67,28.7417 60.5,40 54,28.7417 60.5,17.9833 Z"
     clip-path="url(#clipPath8)"
     id="path527"
     transform="translate(474,322.19325)" />
  <text
     x="14"
     font-size="14px"
     y="27.9844"
     clip-path="url(#clipPath8)"
     font-family="sans-serif"
     stroke="none"
     xml:space="preserve"
     id="text529"
     transform="translate(475.57,302.3336)">contains</text>
</svg>
